<svg xmlns="http://www.w3.org/2000/svg" width="900" height="268" viewBox="0 0 900 268">
  <rect width="900" height="268" fill="#ffffff" rx="6" ry="6" />
  <!-- title -->
  <text x="450" y="20" text-anchor="middle"
        font-family="-apple-system, BlinkMacSystemFont, &quot;Segoe UI&quot;, Helvetica, Arial, sans-serif" font-size="14" font-weight="600" fill="#24292e"
        >Car Listings — Record Growth</text>
  <!-- legend -->
  <circle cx="365" cy="31" r="4" fill="#3b82f6" />
  <text x="373" y="34" font-family="-apple-system, BlinkMacSystemFont, &quot;Segoe UI&quot;, Helvetica, Arial, sans-serif" font-size="11" fill="#586069">Total Records</text>
  <circle cx="455" cy="31" r="4" fill="#22c55e" />
  <text x="463" y="34" font-family="-apple-system, BlinkMacSystemFont, &quot;Segoe UI&quot;, Helvetica, Arial, sans-serif" font-size="11" fill="#586069">Added</text>
  <!-- grid lines -->
  <line x1="58" y1="52" x2="848" y2="52"
           stroke="#e1e4e8" stroke-width="1" stroke-dasharray="4,3" />
  <line x1="58" y1="145" x2="848" y2="145"
           stroke="#e1e4e8" stroke-width="1" stroke-dasharray="4,3" />
  <line x1="58" y1="236" x2="848" y2="236"
           stroke="#e1e4e8" stroke-width="1" stroke-dasharray="4,3" />
  <!-- bars (Added, right axis) -->
  <rect x="60" y="170" width="29" height="70"
          rx="1" fill="#22c55eb3" />
  <rect x="91" y="188" width="29" height="52"
          rx="1" fill="#22c55eb3" />
  <rect x="122" y="189" width="29" height="51"
          rx="1" fill="#22c55eb3" />
  <rect x="153" y="190" width="29" height="50"
          rx="1" fill="#22c55eb3" />
  <rect x="184" y="181" width="29" height="59"
          rx="1" fill="#22c55eb3" />
  <rect x="215" y="192" width="29" height="48"
          rx="1" fill="#22c55eb3" />
  <rect x="246" y="182" width="29" height="58"
          rx="1" fill="#22c55eb3" />
  <rect x="277" y="179" width="29" height="61"
          rx="1" fill="#22c55eb3" />
  <rect x="308" y="188" width="29" height="52"
          rx="1" fill="#22c55eb3" />
  <rect x="339" y="183" width="29" height="57"
          rx="1" fill="#22c55eb3" />
  <rect x="370" y="220" width="29" height="20"
          rx="1" fill="#22c55eb3" />
  <rect x="401" y="220" width="29" height="20"
          rx="1" fill="#22c55eb3" />
  <rect x="432" y="196" width="29" height="44"
          rx="1" fill="#22c55eb3" />
  <rect x="463" y="178" width="29" height="62"
          rx="1" fill="#22c55eb3" />
  <rect x="494" y="197" width="29" height="43"
          rx="1" fill="#22c55eb3" />
  
  
  
  
  <rect x="649" y="73" width="29" height="167"
          rx="1" fill="#22c55eb3" />
  <rect x="680" y="140" width="29" height="100"
          rx="1" fill="#22c55eb3" />
  <rect x="711" y="183" width="29" height="57"
          rx="1" fill="#22c55eb3" />
  <rect x="742" y="192" width="29" height="48"
          rx="1" fill="#22c55eb3" />
  <rect x="773" y="191" width="29" height="49"
          rx="1" fill="#22c55eb3" />
  <rect x="804" y="220" width="29" height="20"
          rx="1" fill="#22c55eb3" />
  <!-- line (Total, left axis) -->
  <polyline points="74,240 105,231 136,223 167,214 198,204 229,196 260,186 291,176 322,167 353,157 384,154 415,150 446,143 477,132 508,125 539,125 570,125 601,125 632,125 663,97 694,80 725,70 756,62 787,53 818,50" fill="none" stroke="#3b82f6" stroke-width="2" stroke-linejoin="round" stroke-linecap="round" />
  <!-- left y-axis labels (Total) -->
  <text x="52" y="56" text-anchor="end"
           font-family="-apple-system, BlinkMacSystemFont, &quot;Segoe UI&quot;, Helvetica, Arial, sans-serif" font-size="10" fill="#586069"
           >9M</text>
  <text x="52" y="149" text-anchor="end"
           font-family="-apple-system, BlinkMacSystemFont, &quot;Segoe UI&quot;, Helvetica, Arial, sans-serif" font-size="10" fill="#586069"
           >6M</text>
  <text x="52" y="240" text-anchor="end"
           font-family="-apple-system, BlinkMacSystemFont, &quot;Segoe UI&quot;, Helvetica, Arial, sans-serif" font-size="10" fill="#586069"
           >3M</text>
  <!-- right y-axis labels (Added) -->
  <text x="854" y="56" text-anchor="start"
           font-family="-apple-system, BlinkMacSystemFont, &quot;Segoe UI&quot;, Helvetica, Arial, sans-serif" font-size="10" fill="#22c55e"
           >912k</text>
  <text x="854" y="149" text-anchor="start"
           font-family="-apple-system, BlinkMacSystemFont, &quot;Segoe UI&quot;, Helvetica, Arial, sans-serif" font-size="10" fill="#22c55e"
           >456k</text>
  <text x="854" y="240" text-anchor="start"
           font-family="-apple-system, BlinkMacSystemFont, &quot;Segoe UI&quot;, Helvetica, Arial, sans-serif" font-size="10" fill="#22c55e"
           >0</text>
  <!-- axes -->
  <line x1="58" y1="50" x2="58" y2="240"
        stroke="#e1e4e8" stroke-width="1" />
  <line x1="58" y1="240" x2="848" y2="240"
        stroke="#e1e4e8" stroke-width="1" />
  <line x1="848" y1="50" x2="848" y2="240"
           stroke="#e1e4e8" stroke-width="1" />
  <!-- x-axis labels -->
  <text x="74" y="256" text-anchor="middle"
           font-family="-apple-system, BlinkMacSystemFont, &quot;Segoe UI&quot;, Helvetica, Arial, sans-serif" font-size="10" fill="#586069"
           >Jan 11</text>
  <text x="322" y="256" text-anchor="middle"
           font-family="-apple-system, BlinkMacSystemFont, &quot;Segoe UI&quot;, Helvetica, Arial, sans-serif" font-size="10" fill="#586069"
           >Mar 8</text>
  <text x="570" y="256" text-anchor="middle"
           font-family="-apple-system, BlinkMacSystemFont, &quot;Segoe UI&quot;, Helvetica, Arial, sans-serif" font-size="10" fill="#586069"
           >May 3</text>
  <text x="818" y="256" text-anchor="middle"
           font-family="-apple-system, BlinkMacSystemFont, &quot;Segoe UI&quot;, Helvetica, Arial, sans-serif" font-size="10" fill="#586069"
           >Jun 28</text>
</svg>