<svg xmlns="http://www.w3.org/2000/svg" width="900" height="268" viewBox="0 0 900 268">
  <rect width="900" height="268" fill="#ffffff" rx="6" ry="6" />
  <!-- title -->
  <text x="450" y="20" text-anchor="middle"
        font-family="-apple-system, BlinkMacSystemFont, &quot;Segoe UI&quot;, Helvetica, Arial, sans-serif" font-size="14" font-weight="600" fill="#24292e"
        >Car Listings — Record Growth</text>
  <!-- legend -->
  <circle cx="365" cy="31" r="4" fill="#3b82f6" />
  <text x="373" y="34" font-family="-apple-system, BlinkMacSystemFont, &quot;Segoe UI&quot;, Helvetica, Arial, sans-serif" font-size="11" fill="#586069">Total Records</text>
  <circle cx="455" cy="31" r="4" fill="#22c55e" />
  <text x="463" y="34" font-family="-apple-system, BlinkMacSystemFont, &quot;Segoe UI&quot;, Helvetica, Arial, sans-serif" font-size="11" fill="#586069">Added</text>
  <!-- grid lines -->
  <line x1="58" y1="52" x2="848" y2="52"
           stroke="#e1e4e8" stroke-width="1" stroke-dasharray="4,3" />
  <line x1="58" y1="145" x2="848" y2="145"
           stroke="#e1e4e8" stroke-width="1" stroke-dasharray="4,3" />
  <line x1="58" y1="236" x2="848" y2="236"
           stroke="#e1e4e8" stroke-width="1" stroke-dasharray="4,3" />
  <!-- bars (Added, right axis) -->
  <rect x="59" y="188" width="28" height="52"
          rx="1" fill="#22c55eb3" />
  <rect x="89" y="183" width="28" height="57"
          rx="1" fill="#22c55eb3" />
  <rect x="119" y="220" width="28" height="20"
          rx="1" fill="#22c55eb3" />
  <rect x="149" y="220" width="28" height="20"
          rx="1" fill="#22c55eb3" />
  <rect x="179" y="196" width="28" height="44"
          rx="1" fill="#22c55eb3" />
  <rect x="209" y="178" width="28" height="62"
          rx="1" fill="#22c55eb3" />
  <rect x="239" y="197" width="28" height="43"
          rx="1" fill="#22c55eb3" />
  
  
  
  
  <rect x="389" y="73" width="28" height="167"
          rx="1" fill="#22c55eb3" />
  <rect x="419" y="140" width="28" height="100"
          rx="1" fill="#22c55eb3" />
  <rect x="449" y="183" width="28" height="57"
          rx="1" fill="#22c55eb3" />
  <rect x="479" y="192" width="28" height="48"
          rx="1" fill="#22c55eb3" />
  <rect x="509" y="191" width="28" height="49"
          rx="1" fill="#22c55eb3" />
  <rect x="539" y="175" width="28" height="65"
          rx="1" fill="#22c55eb3" />
  <rect x="569" y="190" width="28" height="50"
          rx="1" fill="#22c55eb3" />
  <rect x="599" y="196" width="28" height="44"
          rx="1" fill="#22c55eb3" />
  <rect x="629" y="176" width="28" height="64"
          rx="1" fill="#22c55eb3" />
  <rect x="659" y="190" width="28" height="50"
          rx="1" fill="#22c55eb3" />
  <rect x="689" y="172" width="28" height="68"
          rx="1" fill="#22c55eb3" />
  <rect x="719" y="186" width="28" height="54"
          rx="1" fill="#22c55eb3" />
  <rect x="749" y="193" width="28" height="47"
          rx="1" fill="#22c55eb3" />
  <rect x="779" y="175" width="28" height="65"
          rx="1" fill="#22c55eb3" />
  <rect x="809" y="216" width="28" height="24"
          rx="1" fill="#22c55eb3" />
  <!-- line (Total, left axis) -->
  <polyline points="73,240 103,231 133,228 163,225 193,218 223,208 253,201 283,201 313,201 343,201 373,201 403,174 433,159 463,150 493,142 523,134 553,124 583,116 613,109 643,99 673,91 703,80 733,72 763,64 793,54 823,50" fill="none" stroke="#3b82f6" stroke-width="2" stroke-linejoin="round" stroke-linecap="round" />
  <!-- left y-axis labels (Total) -->
  <text x="52" y="56" text-anchor="end"
           font-family="-apple-system, BlinkMacSystemFont, &quot;Segoe UI&quot;, Helvetica, Arial, sans-serif" font-size="10" fill="#586069"
           >12M</text>
  <text x="52" y="149" text-anchor="end"
           font-family="-apple-system, BlinkMacSystemFont, &quot;Segoe UI&quot;, Helvetica, Arial, sans-serif" font-size="10" fill="#586069"
           >9M</text>
  <text x="52" y="240" text-anchor="end"
           font-family="-apple-system, BlinkMacSystemFont, &quot;Segoe UI&quot;, Helvetica, Arial, sans-serif" font-size="10" fill="#586069"
           >5M</text>
  <!-- right y-axis labels (Added) -->
  <text x="854" y="56" text-anchor="start"
           font-family="-apple-system, BlinkMacSystemFont, &quot;Segoe UI&quot;, Helvetica, Arial, sans-serif" font-size="10" fill="#22c55e"
           >912k</text>
  <text x="854" y="149" text-anchor="start"
           font-family="-apple-system, BlinkMacSystemFont, &quot;Segoe UI&quot;, Helvetica, Arial, sans-serif" font-size="10" fill="#22c55e"
           >456k</text>
  <text x="854" y="240" text-anchor="start"
           font-family="-apple-system, BlinkMacSystemFont, &quot;Segoe UI&quot;, Helvetica, Arial, sans-serif" font-size="10" fill="#22c55e"
           >0</text>
  <!-- axes -->
  <line x1="58" y1="50" x2="58" y2="240"
        stroke="#e1e4e8" stroke-width="1" />
  <line x1="58" y1="240" x2="848" y2="240"
        stroke="#e1e4e8" stroke-width="1" />
  <line x1="848" y1="50" x2="848" y2="240"
           stroke="#e1e4e8" stroke-width="1" />
  <!-- x-axis labels -->
  <text x="73" y="256" text-anchor="middle"
           font-family="-apple-system, BlinkMacSystemFont, &quot;Segoe UI&quot;, Helvetica, Arial, sans-serif" font-size="10" fill="#586069"
           >Mar 8</text>
  <text x="313" y="256" text-anchor="middle"
           font-family="-apple-system, BlinkMacSystemFont, &quot;Segoe UI&quot;, Helvetica, Arial, sans-serif" font-size="10" fill="#586069"
           >May 3</text>
  <text x="553" y="256" text-anchor="middle"
           font-family="-apple-system, BlinkMacSystemFont, &quot;Segoe UI&quot;, Helvetica, Arial, sans-serif" font-size="10" fill="#586069"
           >Jun 28</text>
  <text x="793" y="256" text-anchor="middle"
           font-family="-apple-system, BlinkMacSystemFont, &quot;Segoe UI&quot;, Helvetica, Arial, sans-serif" font-size="10" fill="#586069"
           >Aug 23</text>
  <text x="823" y="256" text-anchor="middle"
           font-family="-apple-system, BlinkMacSystemFont, &quot;Segoe UI&quot;, Helvetica, Arial, sans-serif" font-size="10" fill="#586069"
           >Aug 30</text>
</svg>